<svg xmlns:dc="http://purl.org/dc/elements/1.1/" xmlns:cc="http://creativecommons.org/ns#" xmlns:rdf="http://www.w3.org/1999/02/22-rdf-syntax-ns#" xmlns:svg="http://www.w3.org/2000/svg" xmlns="http://www.w3.org/2000/svg" xmlns:sodipodi="http://sodipodi.sourceforge.net/DTD/sodipodi-0.dtd" xmlns:inkscape="http://www.inkscape.org/namespaces/inkscape" version="1.1" x="0px" y="0px" viewBox="0 0 100 125" enable-background="new 0 0 100 100" xml:space="preserve"><path style="" d="" fill="#800000" fill-opacity="1"/><path style="" d="M 5.201522,78.674916 C 3.9974856,78.127898 2.6582272,76.034835 2.0976697,73.824023 0.69740227,68.301423 1.2381467,58.628864 3.6430246,46.181473 5.0209864,39.049289 7.4785247,28.495136 8.2174733,26.536028 c 0.4493462,-1.19132 2.0937347,-3.153094 3.9447857,-4.706178 2.831782,-2.375942 8.498067,-4.569963 11.802414,-4.569963 0.718601,0 1.720141,0.222006 3.439335,0.762359 7.053802,2.217103 12.997397,2.954414 22.616466,2.805602 8.357116,-0.129224 11.778902,-0.569806 21.127828,-2.719972 4.353161,-1.001173 5.388286,-1.05574 7.921162,-0.417533 5.677338,1.430523 10.72758,4.74444 12.333196,8.092899 1.460676,3.046187 5.604473,22.544138 6.660201,31.338426 1.313723,10.943413 0.456324,18.371318 -2.410628,20.883913 -1.898142,1.663518 -5.104478,1.050149 -8.630161,-1.650968 C 83.157772,73.394071 76.97892,65.618609 74.321804,60.372631 l -0.359315,-0.709402 -0.855753,0.421662 c -3.413004,1.681706 -7.783307,0.30627 -9.970581,-3.137977 -0.359954,-0.5668 -0.671663,-1.05257 -0.692707,-1.079472 -0.02106,-0.02682 -0.729522,0.151331 -1.574416,0.395964 -1.937081,0.560964 -5.862473,1.214141 -8.861276,1.474476 -4.42937,0.38452 -11.228016,-0.110857 -13.299718,-0.969005 l -0.563357,-0.233368 -0.414743,0.809644 c -0.22812,0.445312 -0.844357,1.280411 -1.369446,1.855761 -2.522329,2.763876 -6.666863,3.369232 -9.799911,1.431385 l -0.777698,-0.481024 -0.240644,0.465371 c -0.452129,0.874305 -2.661171,4.423752 -3.450967,5.54495 -2.008151,2.85079 -3.761387,4.936603 -6.160416,7.329012 -4.011454,4.000351 -6.0735064,5.266589 -8.7374904,5.365384 -0.9853007,0.03657 -1.6447963,-0.02341 -1.9918436,-0.181076 z M 32.957677,59.570009 c 1.198382,-0.444045 2.782629,-1.974973 3.371894,-3.258392 2.281262,-4.968674 -1.244847,-10.704372 -6.292168,-10.2351 -2.900078,0.269632 -5.20966,2.590049 -5.760343,5.787372 -0.760771,4.417137 2.755111,8.590893 6.865981,8.150701 0.475605,-0.05088 1.292192,-0.250988 1.814636,-0.444581 l 0,0 z m 38.562822,-0.740952 c 3.212194,-0.94976 5.226808,-4.343878 4.677278,-7.880045 -0.265441,-1.708023 -0.852455,-2.879675 -2.03035,-4.052432 -1.301954,-1.296276 -2.517595,-1.788369 -4.416636,-1.787849 -1.153161,3.58e-4 -1.496723,0.07607 -2.439362,0.538159 -2.740361,1.343187 -4.310192,4.50605 -3.775977,7.607763 0.354403,2.057709 1.341904,3.675372 2.892847,4.738898 1.557143,1.067768 3.325399,1.357898 5.0922,0.835506 z M 20.140584,37.042977 c 0.801203,-0.278085 1.101938,-0.996118 1.218191,-2.908565 l 0.09944,-1.635787 1.324105,-0.107119 c 2.437889,-0.197315 2.935861,-0.319566 3.470551,-0.851922 0.403134,-0.401376 0.490771,-0.622781 0.447491,-1.13043 -0.09779,-1.146116 -1.177438,-1.601279 -3.815366,-1.608431 l -1.513255,-0.0033 0,-1.301267 c 0,-1.689216 -0.274747,-2.750563 -0.823227,-3.180125 -0.820379,-0.642498 -2.471707,-0.275061 -2.816016,0.626584 -0.09103,0.238391 -0.165512,1.203251 -0.165512,2.144119 l 0,1.710689 -2.032086,2.6e-4 c -2.29939,3.08e-4 -3.025068,0.231157 -3.517369,1.11897 -0.353637,0.637735 -0.163806,1.511683 0.409098,1.883443 0.501847,0.325646 2.309918,0.610362 3.886516,0.611988 l 1.253841,0.0013 0,1.819318 c 0,1.978263 0.111609,2.347666 0.825829,2.733584 0.572267,0.309196 1.022753,0.32919 1.747771,0.07753 z M 78.215247,36.34744 c 0.695513,-0.420377 1.182644,-1.594825 1.019861,-2.458815 -0.316985,-1.682292 -2.34611,-2.506906 -3.813397,-1.549702 -1.133669,0.73957 -1.344811,2.548297 -0.419917,3.597112 0.868292,0.984593 2.020946,1.132169 3.213453,0.411405 z m 5.581127,-4.467711 c 0.824472,-0.461356 1.218742,-1.1336 1.217925,-2.076614 -0.0017,-1.90233 -1.785738,-3.025104 -3.458226,-2.176351 -1.821574,0.924418 -1.814571,3.384495 0.01144,4.311969 0.783639,0.397849 1.442782,0.380391 2.228005,-0.059 l 0,0 z m -11.824286,-0.08826 c 1.61453,-0.762798 1.717514,-3.285228 0.175193,-4.291391 -0.579666,-0.378148 -1.875434,-0.361032 -2.550558,0.03365 -0.640103,0.374247 -1.184457,1.309751 -1.184081,2.034888 6.37e-4,1.234004 1.204146,2.499429 2.377144,2.499429 0.328247,0 0.860291,-0.124511 1.182302,-0.276622 l 0,0 z m 5.939889,-5.190664 c 1.253974,-0.636629 1.668847,-1.875364 1.075418,-3.211041 -0.293524,-0.660687 -0.5022,-0.869072 -1.160574,-1.159022 -1.079335,-0.475368 -1.84252,-0.324914 -2.704347,0.533152 -0.8383,0.834661 -0.948875,1.977005 -0.294371,3.041344 0.626227,1.01837 1.964834,1.3637 3.083874,0.795567 l 0,0 z" fill="#000000" fill-opacity="1" fill-rule="nonzero" stroke="none"/><text x="0" y="115" fill="#000000" font-size="5px" font-weight="bold" font-family="'Helvetica Neue', Helvetica, Arial-Unicode, Arial, Sans-serif">Created by Chinmay Kulkarni</text><text x="0" y="120" fill="#000000" font-size="5px" font-weight="bold" font-family="'Helvetica Neue', Helvetica, Arial-Unicode, Arial, Sans-serif">from the Noun Project</text></svg>